<svg width="1509" height="560" viewBox="0 0 1509 560" fill="none" xmlns="http://www.w3.org/2000/svg">
<path fill-rule="evenodd" clip-rule="evenodd" d="M1.45569 202.591C13.8982 143.82 148.532 120.53 243.546 85.989C337.955 51.668 406.281 -9.15563 552.841 2.14444C700.25 13.51 795.074 95.2312 928.321 138.787C1045.09 176.954 1187.23 192.451 1282.45 240.636C1395.48 297.833 1538.1 372.61 1502.59 429.387C1465.95 487.974 1247.6 467.22 1124.62 492.993C1034.69 511.841 991.169 557.763 881.21 559.617C767.044 561.541 644.489 531.474 528.256 503.044C400.365 471.762 269.665 439.369 179.605 388.005C78.4853 330.333 -11.065 261.731 1.45569 202.591Z" fill="#84B2FF"/>
</svg>
