<svg width="1920" height="581" viewBox="0 0 1920 581" fill="none" xmlns="http://www.w3.org/2000/svg">
<path fill-rule="evenodd" clip-rule="evenodd" d="M0.60493 273.915C8.45838 208.327 186.782 172.342 319.777 124.589C451.926 77.1397 541.222 3.44074 757.752 0.41598C975.536 -2.62633 1128.75 76.8038 1331.48 110.456C1509.13 139.946 1719.93 141.975 1867.81 184.683C1937.03 222.915 1916.37 254.915 1916.37 322.415C1873.07 390.342 1856.74 436.171 1681.27 477.269C1552.94 507.325 1497.33 562.121 1336.7 575.691C1169.92 589.779 985.22 569.758 810.063 550.863C617.338 530.072 420.306 508.362 279.419 461.635C121.231 409.17 -7.29783 339.914 0.60493 273.915Z" fill="#F2F8F5"/>
</svg>
