<?xml version="1.0" encoding="UTF-8" standalone="no"?>
<!-- Created with Inkscape (http://www.inkscape.org/) -->

<svg
   width="74.588928mm"
   height="77.110596mm"
   viewBox="0 0 281.91091 291.44163"
   version="1.1"
   id="svg1"
   xml:space="preserve"
   xmlns="http://www.w3.org/2000/svg"
   xmlns:svg="http://www.w3.org/2000/svg"><defs
     id="defs1" /><g
     id="layer1"
     transform="translate(-86.763791,-201.05224)"><g
       id="g1"
       transform="matrix(0.71757407,0,0,0.71757407,135.8813,120.64322)"><path
         style="fill:#84b2ff;fill-opacity:1;stroke:#000000;stroke-opacity:1"
         d="m 277.63806,514.19513 c -2.77754,-1.29338 -9.07754,-5.34783 -14,-9.00989 -11.64564,-8.66377 -16.89791,-14.7291 -36.21356,-21.18886 -29.28155,-9.79268 -51.30909,-20.80166 -50.61538,-38.71717 0.61773,-15.95349 8.12369,-32.65723 27.26023,-46.20616 11.75094,-8.31982 30.03587,-14.06891 47.45778,-21.80418 41.73459,-18.53001 45.19173,-65.15358 51.3566,-101.12399 2.11769,-12.35626 15.23278,44.24449 18.77868,83.34898 9.1754,101.18744 -10.49636,170.3138 -44.02435,154.70127 z"
         id="path500006" /><path
         style="fill:#f3b2b8;fill-opacity:1;stroke:#000000;stroke-opacity:1"
         d="m 201.19882,262.22626 c -24.56234,-7.97494 -36.17566,-17.25863 -36.31616,-57.19395 -0.18499,-52.57913 43.29023,-53.55513 90.01288,-9.63682 32.20733,30.27421 -8.33651,81.55839 -53.69672,66.83077 z"
         id="path500010" /><path
         style="fill:#dff2eb;fill-opacity:1;stroke:#000000;stroke-opacity:1"
         d="m -66.041705,378.00226 c 3.557865,-84.84775 98.147653,-231.23898 148.082423,-212.37232 19.744562,7.46002 30.658602,68.86474 7.95014,86.16407 -4.72135,3.59672 -11.77777,9.41573 -21.97439,15.57593 -8.96329,5.4151 -29.7236,17.43314 -42.54669,24.15119 -18.1311203,9.49895 -32.2427403,16.36748 -44.40125,24.15468 -11.04793,7.0759 -20.10474,14.74854 -28.53543,24.06447 -3.22333,3.56178 -6.26979,7.30138 -9.03519,11.76454 -1.19557,1.92958 -2.32602,3.89478 -3.4554,6.1865 -3.08902,6.26819 -6.162962,22.18895 -6.084213,20.31094 z"
         id="path500009" /><path
         style="fill:#f3b2b8;fill-opacity:1;stroke:#000000;stroke-opacity:1"
         d="m 180.58247,457.14071 c 1.37958,3.5135 -11.73519,-10.29959 -11.49041,-32.27997 0.41099,-36.90412 10.64294,-66.12033 58.13202,-87.28522 50.44581,-22.48264 38.96278,-99.66834 33.39928,-133.57233 -1.11006,-6.76468 34.19665,34.72361 47.66243,80.76549 4.5277,15.48102 4.39749,33.62491 -3.09602,48.5269 -11.38264,22.63612 -20.72274,32.53525 -53.4116,46.11318 -31.43743,13.05813 -25.22537,8.57462 -38.7201,16.15876 -5.09341,2.86254 -17.96682,11.68536 -24.27196,21.6447 -7.70629,12.17254 -9.01557,23.42198 -8.96548,29.31935 0.0129,1.51653 0.76184,10.60914 0.76184,10.60914 z"
         id="path500008" /><path
         style="fill:#f3b2b8;fill-opacity:1;stroke:#000000;stroke-opacity:1"
         d="m -40.667204,517.20682 c -12.35831,-2.77294 -19.05179,-25.93803 -19.09246,-48.95834 -0.0853,-48.29284 24.42652,-80.04397 72.08294,-102.60067 30.34744,-14.36403 38.136184,-25.63271 45.925464,-31.38928 18.96215,-14.01372 27.282056,-20.31845 38.17046,-46.01005 1.86478,-4.4 3.64224,-11.375 3.3388,-10 -2.54114,11.51508 -1.43858,44.26918 2.45731,73 10.37276,76.49549 -2.67708,102.17955 -62.505314,123.0199 -25.53358,8.89427 -41.7961389,18.21946 -58.48891,33.53842 -9.7102,8.91104 -14.63728,11.027 -21.88829,9.40002 z"
         id="path500005" /><path
         style="fill:#dff2eb;fill-opacity:1;stroke:#000000;stroke-opacity:1"
         d="m 174.04274,448.52653 c -13.93815,-28.84121 -7.26125,-135.78971 33.32379,-162.91232 38.78878,-25.92219 68.25014,-52.35701 49.30307,-88.46469 13.64034,16.13388 38.63401,40.85588 37.24993,68.16424 -0.75308,12.84571 -6.81652,29.89136 -16.94178,41.0991 -7.19643,7.9658 -10.90048,12.34222 -23.09008,19.59238 -4.9105,2.92067 -16.99755,9.5897 -22.86956,12.65828 -28.24565,14.76054 -41.02215,25.06962 -49.48788,42.14824 -4.47158,9.02087 -7.15698,18.89855 -8.88738,32.89806 -1.49532,12.09759 4.2812,40.77881 1.39989,34.81671 z"
         id="path500011" /><path
         style="fill:#84b2ff;fill-opacity:1;stroke:#000000;stroke-opacity:1"
         d="m -62.331271,468.06337 c -7.943463,-45.79219 -7.369638,-85.82763 1.19568,-109.02285 1.008829,-2.73195 2.128948,-5.23036 3.35965,-7.47715 18.941879,-34.5806 50.4964903,-46.51248 106.33032,-76.18839 16.18655,-8.60322 41.64618,-22.81958 53.001301,-36.94102 18.01615,-22.40523 19.37738,-28.0851 19.37738,-80.85418 0,-46.34681 -0.33987,-45.01641 11.5,-45.01641 12.39771,0 12.49846,0.37308 12.50755,46.3151 0.008,41.44931 3.80097,46.62696 5.06974,58.21594 2.04367,18.66686 19.23328,27.21677 35.61294,38.07694 8.01193,5.31213 29.09271,11.53306 41.13314,8.43101 7.10708,-1.83104 7.17065,-1.53297 12.86248,-4.55228 4.28362,-2.27231 11.78254,-10.47395 13.63278,-13.50352 1.9008,-3.11233 -0.7102,2.46383 -6.18389,10.54711 -3.1427,4.64099 -9.04724,11.517 -18.69051,17.19309 -23.94224,14.09255 -48.99463,7.33388 -73.24266,-15.04949 -20.42638,-18.8556 -29.27661,-21.44771 -41.29585,-2.85911 -3.91969,6.06208 -4.96204,7.63331 -8.72982,17.1902 -16.259373,41.24157 -39.64409,61.05905 -77.675901,87.08523 -27.39434468,18.74668 -29.1086117,16.94278 -45.053129,28.70681 -22.520084,16.61554 -33.230326,36.81541 -39.304968,58.93372 -1.409213,5.13107 -1.877037,14.79487 -1.966304,18.00098 -0.130143,4.67422 1.92508,25.75039 -0.1378,17.64852 -0.590984,-2.32107 -2.707827,-11.45424 -3.302129,-14.88025 z"
         id="path500004" /></g></g></svg>
