<svg width="1029" height="145" viewBox="0 0 1029 145" fill="none" xmlns="http://www.w3.org/2000/svg">
<path fill-rule="evenodd" clip-rule="evenodd" d="M1.28689 -100.137C9.76499 -139.537 104.941 -154.423 172.007 -177.087C238.647 -199.606 286.674 -240.071 390.487 -231.659C494.901 -223.199 562.486 -167.783 657.056 -137.784C739.928 -111.496 840.637 -100.29 908.314 -67.3953C988.649 -28.3477 1090.03 22.6724 1065.21 60.6038C1039.6 99.7445 884.914 84.5802 798.005 101.199C734.447 113.352 703.898 143.949 626.068 144.576C545.261 145.227 458.336 124.347 375.895 104.601C285.185 82.874 192.481 60.3859 128.439 25.3846C56.5332 -13.915 -7.24445 -60.4902 1.28689 -100.137Z" fill="#84B2FF"/>
</svg>
